<?xml version="1.0" standalone="no"?>
<!DOCTYPE svg PUBLIC "-//W3C//DTD SVG 20010904//EN"
 "http://www.w3.org/TR/2001/REC-SVG-20010904/DTD/svg10.dtd">
<svg version="1.0" xmlns="http://www.w3.org/2000/svg"
 width="1488.000000pt" height="899.000000pt" viewBox="0 0 1488.000000 899.000000"
 preserveAspectRatio="xMidYMid meet">

<g transform="translate(0.000000,899.000000) scale(0.100000,-0.100000)"
fill="#000000" stroke="none">
<path d="M10546 8514 c-197 -43 -352 -187 -410 -383 -20 -69 -21 -208 -1 -286
49 -186 217 -347 402 -385 82 -17 235 -8 308 18 81 30 186 103 236 166 84 104
119 207 119 346 0 210 -113 390 -302 480 -124 59 -223 71 -352 44z"/>
<path d="M5985 7969 c-22 -5 -50 -11 -63 -14 -18 -5 -23 -11 -20 -32 3 -31
-78 -8 1183 -334 363 -93 690 -179 726 -189 81 -24 139 -65 170 -122 15 -26
39 -51 64 -65 71 -39 1000 -225 1310 -263 88 -10 578 -50 623 -50 l22 0 0
-945 0 -944 73 55 c128 96 283 161 447 185 114 16 303 7 410 -20 98 -25 263
-103 333 -156 l47 -36 0 796 c0 457 4 795 9 795 42 0 80 -111 121 -349 38
-223 43 -320 45 -746 1 -315 4 -428 14 -450 29 -69 87 -105 171 -105 88 0 148
49 174 143 34 122 28 820 -9 1123 -68 558 -274 924 -574 1027 -66 22 -69 22
-741 23 -670 0 -829 6 -1165 40 -324 33 -650 89 -930 161 -99 25 -198 50 -220
55 -33 8 -72 5 -192 -16 l-151 -26 -198 51 c-110 28 -440 113 -734 189 -733
190 -890 230 -898 229 -4 -1 -25 -5 -47 -10z"/>
<path d="M130 5115 l0 -135 240 0 240 0 0 -630 0 -631 143 3 142 3 3 628 2
627 240 0 240 0 0 135 0 135 -625 0 -625 0 0 -135z"/>
<path d="M4470 4485 l0 -765 130 0 130 0 0 292 c0 327 6 368 65 449 88 122
286 135 382 26 58 -66 63 -105 63 -454 l0 -314 133 3 132 3 0 345 c-1 372 -5
408 -59 525 -65 139 -200 215 -385 215 -115 0 -202 -34 -288 -114 l-43 -39 0
297 0 296 -130 0 -130 0 0 -765z"/>
<path d="M1555 4824 c-315 -49 -509 -315 -465 -640 27 -207 119 -344 287 -428
81 -40 174 -58 298 -58 171 0 322 49 420 135 l40 36 -84 85 -84 85 -29 -24
c-58 -49 -133 -69 -258 -70 -129 0 -185 17 -249 78 -32 30 -70 98 -71 124 0
10 93 13 418 15 l417 3 3 90 c9 287 -121 486 -361 551 -54 15 -229 26 -282 18z
m238 -254 c60 -23 109 -68 131 -122 31 -72 48 -68 -269 -68 -324 0 -311 -4
-256 82 54 84 141 127 263 128 54 0 94 -6 131 -20z"/>
<path d="M3950 4821 c-124 -18 -242 -71 -318 -144 -117 -112 -177 -308 -153
-500 35 -290 223 -466 516 -484 167 -10 314 34 416 126 l44 40 -86 86 -86 87
-49 -31 c-61 -39 -112 -53 -190 -53 -125 -1 -220 56 -271 160 -24 50 -28 68
-28 147 0 72 5 100 23 141 80 178 305 233 471 115 l28 -20 44 47 c24 26 62 66
83 89 l39 42 -24 21 c-50 44 -128 90 -185 109 -69 23 -195 33 -274 22z"/>
<path d="M6023 4820 c-126 -23 -256 -96 -325 -183 -89 -113 -122 -218 -121
-382 1 -137 31 -239 97 -334 105 -151 264 -224 491 -223 171 0 322 49 420 135
l40 36 -84 85 -84 85 -29 -24 c-58 -49 -133 -69 -258 -70 -129 0 -185 17 -249
78 -32 30 -70 98 -71 124 0 10 93 13 418 15 l417 3 3 90 c9 287 -121 486 -361
551 -66 18 -236 26 -304 14z m260 -250 c60 -23 109 -68 131 -122 31 -72 48
-68 -269 -68 -324 0 -311 -4 -256 82 54 84 141 127 263 128 54 0 94 -6 131
-20z"/>
<path d="M7955 4820 c-130 -18 -259 -84 -307 -158 -37 -55 -48 -97 -48 -176 0
-187 142 -297 419 -325 57 -6 122 -16 144 -22 115 -31 116 -148 3 -200 -104
-47 -312 -1 -444 98 -19 14 -37 21 -41 17 -4 -5 -34 -46 -66 -92 l-57 -84 31
-32 c41 -42 126 -93 209 -124 56 -21 90 -26 207 -30 165 -5 226 5 324 54 125
62 185 161 184 301 0 68 -5 91 -27 137 -59 120 -164 172 -396 196 -125 12
-166 24 -202 58 -53 49 -27 127 50 153 54 18 187 16 249 -5 28 -9 70 -30 92
-46 l40 -29 75 87 75 87 -27 22 c-44 36 -135 81 -193 96 -71 19 -219 27 -294
17z"/>
<path d="M2675 4814 c-186 -39 -316 -133 -383 -277 -43 -91 -56 -158 -56 -282
1 -179 42 -299 140 -404 186 -201 555 -215 719 -28 l45 52 0 -55 c0 -104 -6
-100 136 -100 l124 0 0 540 0 541 -127 -3 -128 -3 -3 -67 c-2 -38 -5 -68 -7
-68 -3 0 -22 19 -44 43 -43 47 -122 90 -192 106 -43 10 -184 13 -224 5z m283
-265 c70 -35 105 -71 140 -147 65 -142 24 -317 -96 -409 -112 -85 -292 -75
-400 22 -73 66 -97 126 -97 245 0 107 17 157 75 224 58 66 129 94 241 95 66 1
84 -3 137 -30z"/>
<path d="M7198 4801 c-55 -22 -93 -50 -124 -92 -26 -35 -29 -32 -39 39 l-7 52
-124 0 -124 0 0 -540 0 -541 133 3 132 3 5 330 c5 314 6 332 27 370 44 83 114
126 214 133 73 5 124 -7 181 -44 l37 -24 58 114 c56 111 57 115 40 134 -10 11
-46 32 -80 48 -54 25 -76 29 -172 31 -89 3 -119 0 -157 -16z"/>
<path d="M9468 4810 c-171 -31 -307 -127 -382 -270 -85 -161 -89 -379 -9 -548
35 -76 149 -190 225 -225 165 -78 366 -77 528 1 259 126 358 491 212 778 -52
102 -182 208 -300 244 -74 23 -206 33 -274 20z m178 -101 c293 -54 446 -383
309 -665 -42 -86 -102 -144 -191 -186 -129 -60 -269 -60 -399 1 -86 40 -148
99 -189 181 -138 277 12 614 299 668 70 14 102 14 171 1z"/>
<path d="M10650 4810 c-109 -21 -190 -67 -259 -147 l-41 -48 0 93 0 92 -50 0
-50 0 0 -540 0 -540 50 0 50 0 0 298 c0 163 4 325 9 359 20 135 100 247 215
300 55 25 71 28 171 28 100 0 116 -3 172 -29 72 -33 133 -94 166 -164 21 -45
22 -62 27 -417 l5 -370 53 -3 52 -3 0 348 c0 379 -6 431 -57 524 -52 96 -155
175 -267 205 -67 18 -189 25 -246 14z"/>
<path d="M12060 4499 c-181 -12 -186 -14 -70 -23 1015 -75 1693 -206 2085
-404 177 -89 323 -222 380 -346 117 -259 199 -694 255 -1351 12 -137 25 -286
29 -330 l7 -80 10 140 c16 239 10 867 -9 1040 -41 367 -108 618 -202 760 -220
330 -792 538 -1633 595 -177 12 -668 11 -852 -1z"/>
<path d="M5360 2500 l0 -890 155 0 155 0 0 338 c0 365 6 413 53 495 58 98 149
150 264 150 97 0 173 -37 220 -106 55 -82 56 -92 60 -499 l4 -378 156 0 155 0
-5 408 c-4 343 -7 418 -22 477 -51 206 -174 336 -353 374 -66 14 -212 14 -271
0 -72 -16 -152 -61 -208 -116 l-53 -51 0 344 0 344 -155 0 -155 0 0 -890z"/>
<path d="M9580 2500 l0 -890 155 0 155 0 0 890 0 890 -155 0 -155 0 0 -890z"/>
<path d="M2061 3219 c-364 -41 -701 -188 -971 -423 -299 -261 -516 -675 -554
-1056 -6 -53 -5 -51 18 30 139 490 436 859 861 1070 215 107 363 149 598 172
226 21 472 -16 686 -103 435 -178 789 -603 974 -1171 l42 -128 171 0 172 0 61
178 c33 97 81 253 106 346 24 93 46 170 48 173 2 2 25 -77 51 -174 40 -149 81
-277 156 -490 l12 -33 166 0 167 0 219 633 c120 347 221 638 224 645 3 10 -29
12 -153 10 l-158 -3 -152 -488 c-83 -268 -154 -490 -157 -492 -3 -3 -60 217
-127 490 l-123 495 -123 0 -124 0 -10 -37 c-6 -21 -58 -234 -116 -473 -59
-239 -108 -442 -111 -449 -3 -8 -27 36 -54 98 -284 653 -770 1072 -1355 1166
-117 19 -338 26 -444 14z"/>
<path d="M12807 3220 c-664 -64 -1207 -521 -1502 -1265 -56 -142 -115 -311
-115 -331 0 -11 27 -14 149 -14 l149 0 7 33 c15 70 100 289 160 412 255 522
659 856 1139 940 334 58 663 7 981 -150 169 -84 294 -174 430 -310 213 -213
359 -468 440 -766 24 -90 25 -92 19 -34 -8 85 -51 277 -81 360 -84 236 -212
435 -402 626 -206 205 -421 337 -689 423 -206 66 -477 96 -685 76z"/>
<path d="M7185 2882 c-246 -64 -405 -228 -460 -476 -14 -60 -16 -107 -13 -200
6 -138 34 -239 94 -337 48 -80 149 -170 236 -213 118 -58 182 -71 353 -71 166
0 248 17 372 76 70 33 163 103 163 122 0 7 -45 54 -99 105 -86 80 -101 90
-112 76 -37 -45 -217 -104 -315 -104 -185 0 -340 100 -369 238 l-7 32 491 0
491 0 0 115 c0 327 -128 533 -387 621 -68 24 -97 28 -223 30 -115 3 -159 0
-215 -14z m346 -277 c86 -30 155 -107 174 -192 l7 -33 -336 0 c-375 0 -354 -5
-316 71 40 78 117 136 220 166 57 16 189 10 251 -12z"/>
<path d="M8600 2884 c-105 -22 -223 -86 -299 -163 -122 -122 -181 -276 -181
-473 0 -338 162 -561 470 -645 91 -25 338 -25 430 1 91 25 155 53 230 101 108
69 108 61 -5 175 -99 99 -99 99 -120 80 -52 -48 -216 -100 -320 -100 -58 0
-163 23 -206 46 -52 27 -111 87 -135 139 -44 93 -89 85 467 85 l492 0 -6 143
c-3 85 -11 166 -21 201 -60 217 -215 365 -431 411 -87 18 -278 18 -365 -1z
m345 -280 c67 -24 139 -96 158 -160 8 -27 13 -52 10 -56 -2 -5 -152 -8 -334
-8 -375 0 -353 -6 -299 86 64 112 181 168 335 160 44 -3 102 -12 130 -22z"/>
<path d="M10426 2885 c-91 -19 -204 -73 -260 -125 -25 -23 -58 -68 -73 -99
-25 -49 -28 -67 -28 -151 0 -84 3 -102 28 -152 66 -135 221 -211 483 -237 136
-14 177 -25 215 -59 63 -57 41 -141 -50 -191 -118 -65 -370 -16 -524 103 -27
21 -50 36 -52 34 -30 -33 -145 -214 -141 -224 9 -23 120 -104 191 -139 101
-50 173 -66 325 -72 222 -9 371 33 478 134 92 88 132 211 112 340 -33 208
-175 303 -497 333 -65 6 -139 17 -165 26 -61 20 -98 63 -98 113 0 83 72 121
226 121 111 0 192 -22 262 -73 l49 -35 86 102 86 101 -32 27 c-46 40 -153 94
-222 113 -84 23 -309 29 -399 10z"/>
<path d="M1869 2644 c-382 -69 -719 -317 -903 -664 -53 -101 -97 -224 -122
-340 -26 -119 -26 -382 -1 -500 55 -257 173 -476 352 -655 256 -257 591 -387
955 -371 193 8 324 40 496 121 135 63 237 136 355 254 194 195 308 414 355
685 24 138 15 398 -19 527 -127 486 -509 845 -1000 940 -117 23 -351 25 -468
3z m408 -349 c284 -60 519 -239 648 -495 144 -285 126 -642 -47 -907 -168
-257 -433 -412 -733 -430 -536 -31 -998 427 -972 962 7 133 34 239 91 360 121
255 367 450 641 508 92 20 285 21 372 2z"/>
<path d="M12886 2644 c-305 -55 -601 -239 -791 -492 -282 -376 -333 -887 -131
-1308 72 -150 141 -249 251 -359 178 -179 398 -297 655 -352 117 -25 382 -25
497 0 520 112 916 515 1009 1027 23 128 21 350 -5 477 -53 255 -169 472 -351
653 -188 187 -423 311 -675 354 -112 20 -350 20 -459 0z m411 -349 c221 -47
408 -161 545 -333 64 -81 147 -243 172 -337 81 -310 -2 -637 -223 -868 -92
-96 -169 -153 -282 -207 -139 -66 -220 -83 -394 -83 -135 0 -159 2 -240 27
-359 108 -608 384 -670 743 -52 299 53 607 282 825 129 122 288 201 488 242
51 10 260 5 322 -9z"/>
</g>
</svg>
